<svg width="52" height="20" viewBox="0 0 52 20" fill="none" xmlns="http://www.w3.org/2000/svg">
<g clip-path="url(#clip0_14_177)">
<path d="M20.5535 1.49678L17.9448 18.5391H22.1171L24.728 1.49678H20.5535Z" fill="#FCFCFC"/>
<path d="M14.4464 1.5159L10.3599 13.1382L9.92425 11.3834C9.11833 9.2689 6.83043 6.23221 4.14441 4.31845L7.88102 18.5307L12.2958 18.5223L18.8666 1.51231L14.4464 1.5159Z" fill="#FCFCFC"/>
<path d="M8.3403 2.73559C8.09778 1.69748 7.39488 1.38808 6.52244 1.35104H0.0536561L0 1.69031C5.03402 3.04978 8.36499 6.32539 9.74717 10.264L8.3403 2.73559Z" fill="#FCFCFC"/>
<path d="M33.1842 4.76403C34.5492 4.74014 35.5386 5.07224 36.307 5.41629L36.6836 5.6134L37.2481 1.91967C36.4218 1.57443 35.1265 1.2041 33.5104 1.2041C29.3875 1.2041 26.4814 3.51567 26.4589 6.82831C26.4321 9.27606 28.529 10.6427 30.1129 11.4586C31.7387 12.2948 32.2838 12.8264 32.2763 13.5731C32.2634 14.7139 30.98 15.2372 29.7813 15.2372C28.1104 15.2372 27.223 14.9803 25.8526 14.3448L25.315 14.0724L24.728 17.8868C25.7045 18.3634 27.5063 18.7732 29.3767 18.7947C33.7626 18.7947 36.6128 16.5106 36.6428 12.971C36.6611 11.0345 35.5483 9.5568 33.137 8.34427C31.6775 7.55344 30.7847 7.02781 30.7933 6.22981C30.7933 5.52141 31.5509 4.76403 33.1842 4.76403Z" fill="#FCFCFC"/>
<path d="M47.9557 1.5159H44.732C43.7308 1.5159 42.9861 1.81933 42.5461 2.93032L36.351 18.5486H40.7325C40.7325 18.5486 41.4472 16.4485 41.6092 15.9886C42.0889 15.9886 46.346 15.9957 46.9523 15.9957C47.0768 16.5907 47.461 18.5486 47.461 18.5486H51.3317L47.9557 1.5159ZM42.8101 12.5003C43.1535 11.5219 44.4723 7.73742 44.4723 7.73742C44.4498 7.78401 44.8125 6.75186 45.0282 6.11036L45.3094 7.57973C45.3094 7.57973 46.1089 11.6486 46.2763 12.5003H42.8101Z" fill="#FCFCFC"/>
</g>
<defs>
<clipPath id="clip0_14_177">
<rect width="51.4286" height="20" fill="white"/>
</clipPath>
</defs>
</svg>
